FILE "Popful Mail (1994)(Sega)(JP).img" BINARY
  TRACK 01 MODE1/2352
    INDEX 01 00:00:00
  TRACK 02 AUDIO
    PREGAP 00:02:00
    INDEX 01 33:00:04
  TRACK 03 AUDIO
    INDEX 00 35:20:40
    INDEX 01 35:22:39
